<svg width="640" height="390" viewBox="0 0 640 390" fill="none" xmlns="http://www.w3.org/2000/svg" role="img" aria-labelledby="title desc">
  <title id="title">Data integrations</title>
  <desc id="desc">A refined HeatOptx illustration showing HeatOptx connected to SCADA, CMMS, meters, and reporting systems.</desc>
  <rect width="640" height="390" rx="24" fill="#FFFFFF"/>
  <rect x=".5" y=".5" width="639" height="389" rx="23.5" stroke="#DDD2C5"/>
  <rect x="244" y="118" width="152" height="124" rx="22" fill="#F7F3EC" stroke="#DDD2C5"/>
  <text x="280" y="178" font-family="Inter, Arial, sans-serif" font-size="22" font-weight="700" fill="#1E2526">HeatOptx</text>
  <path d="M320 118V72M320 242V318M244 180H112M396 180H528" stroke="#DDD2C5" stroke-width="8" stroke-linecap="round"/>
  <rect x="70" y="148" width="108" height="64" rx="14" fill="#D7E9E4"/>
  <rect x="462" y="148" width="108" height="64" rx="14" fill="#F0C7A4"/>
  <rect x="266" y="38" width="108" height="64" rx="14" fill="#FFFFFF" stroke="#DDD2C5"/>
  <rect x="266" y="288" width="108" height="64" rx="14" fill="#FFFFFF" stroke="#DDD2C5"/>
  <text x="102" y="185" font-family="Inter, Arial, sans-serif" font-size="12" fill="#4D5B5C">SCADA</text>
  <text x="496" y="185" font-family="Inter, Arial, sans-serif" font-size="12" fill="#4D5B5C">CMMS</text>
  <text x="296" y="75" font-family="Inter, Arial, sans-serif" font-size="12" fill="#4D5B5C">Meters</text>
  <text x="294" y="325" font-family="Inter, Arial, sans-serif" font-size="12" fill="#4D5B5C">Reports</text>
  <path d="M214 180H244M396 180H426M320 102V118M320 242V258" stroke="#C66A48" stroke-width="8" stroke-linecap="round"/>
</svg>
