<svg width="640" height="390" viewBox="0 0 640 390" fill="none" xmlns="http://www.w3.org/2000/svg" role="img" aria-labelledby="title desc">
  <title id="title">District heating network</title>
  <desc id="desc">A refined HeatOptx illustration showing district heating buildings, network lines, and a loss anomaly.</desc>
  <rect width="640" height="390" rx="24" fill="#FFFFFF"/>
  <rect x=".5" y=".5" width="639" height="389" rx="23.5" stroke="#DDD2C5"/>
  <path d="M86 260H554" stroke="#DDD2C5" stroke-width="18" stroke-linecap="round"/>
  <path d="M86 260H554" stroke="#7E9F96" stroke-width="6" stroke-linecap="round"/>
  <path d="M146 260V150H230V260M296 260V112H408V260M468 260V178H528V260" stroke="#1E2526" stroke-width="6" stroke-linecap="round" stroke-linejoin="round"/>
  <path d="M90 126C150 82 204 82 270 126C322 160 378 154 438 112C480 84 520 82 560 102" stroke="#C66A48" stroke-width="8" stroke-linecap="round"/>
  <circle cx="438" cy="112" r="15" fill="#A7473D"/>
  <rect x="72" y="52" width="184" height="58" rx="12" fill="#F7F3EC" stroke="#DDD2C5"/>
  <text x="92" y="86" font-family="Inter, Arial, sans-serif" font-size="15" font-weight="700" fill="#1E2526">Network loss map</text>
</svg>
