<svg width="668" height="138" viewBox="0 0 668 138" fill="none" xmlns="http://www.w3.org/2000/svg" role="img" aria-labelledby="title desc">
  <title id="title">HeatOptx horizontal logo</title>
  <desc id="desc">HeatOptx horizontal logo with heat-flow icon and wordmark.</desc>
  <defs>
    <linearGradient id="copper" x1="0" y1="11" x2="117" y2="121" gradientUnits="userSpaceOnUse">
      <stop stop-color="#F0A36F"/>
      <stop offset="0.58" stop-color="#C66A48"/>
      <stop offset="1" stop-color="#A7473D"/>
    </linearGradient>
    <linearGradient id="peach" x1="0" y1="27" x2="117" y2="77" gradientUnits="userSpaceOnUse">
      <stop stop-color="#F0A36F"/>
      <stop offset="1" stop-color="#F0C7A4"/>
    </linearGradient>
  </defs>
  <g transform="translate(0 11) scale(.94)">
    <path d="M18 28H54C62 28 66 23 70 16L76 6C79 2 83 0 88 0H118C122 0 124 2 124 6V22C124 26 122 28 118 28H90C82 28 78 34 74 40L70 46C66 52 61 56 52 56H18C14 56 12 54 12 50V34C12 30 14 28 18 28Z" fill="url(#copper)"/>
    <path d="M18 44H72C80 44 84 38 88 32L92 26C96 20 101 16 110 16H124V44H104C96 44 92 50 88 56L84 62C80 68 75 72 66 72H18C14 72 12 70 12 66V50C12 46 14 44 18 44Z" fill="url(#peach)" opacity="0.96"/>
    <path d="M18 72H54C62 72 66 78 70 84L76 94C79 100 84 104 92 104H118C122 104 124 106 124 110V116H88C80 116 75 112 71 106L66 98C62 92 58 88 50 88H18C14 88 12 86 12 82V78C12 74 14 72 18 72Z" fill="url(#copper)"/>
  </g>
  <text x="142" y="80" font-family="Inter, Arial, sans-serif" font-size="74" font-weight="500" letter-spacing="-1">
    <tspan fill="#1E2526">HeatOpt</tspan><tspan fill="#C66A48">x</tspan>
  </text>
</svg>
